<svg id="Layer_1" xmlns="http://www.w3.org/2000/svg" viewBox="0 0 61.6 38.5"><style>.st0{fill:#ffffff}</style><path class="st0" d="M59.1 4c.2 0 .3-.1.4-.2.1-.1.1-.2.1-.4s-.1-.3-.2-.4c-.1-.1-.3-.2-.6-.2h-.6V5h.3v-.9h.2c.1 0 .3.1.4.4l.3.5h.4l-.3-.6c-.1-.2-.2-.3-.4-.4zm-.2-.1h-.3v-.8h.3c.2 0 .3 0 .4.1.1.1.1.1.1.3 0 .2-.2.4-.5.4zm.1-1.6c-.5 0-.9.2-1.2.5-.3.3-.5.7-.5 1.2s.2.9.5 1.2c.3.3.7.5 1.2.5s.9-.2 1.2-.5c.3-.3.5-.7.5-1.2s-.2-.9-.5-1.2c-.4-.3-.8-.5-1.2-.5zM60 5c-.3.3-.6.4-1 .4s-.8-.1-1-.4c-.3-.3-.4-.6-.4-1.1 0-.4.1-.8.4-1 .3-.3.6-.4 1.1-.4.4 0 .8.1 1 .4.3.3.4.6.4 1-.1.5-.2.8-.5 1.1zM7.5 4V2.3c0 .4.1.7.2.9l3 6.7h.5l3-6.7c.1-.2.2-.5.3-.8-.1.6-.1 1.1-.1 1.6v5.9h1V1.1h-1.3l-2.7 6.1c-.1.2-.2.6-.4 1.1-.1-.2-.2-.6-.4-1L7.8 1.1H6.5v8.7h1V4zm10.6-2c.2 0 .3-.1.5-.2.1-.1.2-.3.2-.5s-.1-.3-.2-.5c-.1-.1-.3-.2-.5-.2s-.3.1-.5.2c-.1.1-.2.3-.2.5s.1.3.2.5.3.2.5.2zm-.5 7.9h1V3.6h-1v6.3zm5.5.1c.7 0 1.2-.1 1.7-.4v-1c-.5.4-1 .5-1.5.5-.6 0-1.2-.2-1.5-.6-.4-.4-.6-1-.6-1.7 0-.8.2-1.4.6-1.8.4-.4.9-.7 1.6-.7.5 0 1 .2 1.5.5v-1c-.4-.2-.9-.3-1.4-.3-1 0-1.8.3-2.4.9-.6.6-.9 1.5-.9 2.5 0 .9.3 1.7.8 2.2.5.6 1.2.9 2.1.9zM28 3.8c-.3.2-.5.6-.7 1.1V3.6h-1v6.2h1V6.7c0-.7.2-1.3.5-1.7.3-.4.6-.5 1-.5.3 0 .6.1.8.2v-1c-.1-.1-.3-.1-.6-.1-.4-.1-.7 0-1 .2zm5 6.2c.9 0 1.7-.3 2.3-.9.6-.6.8-1.4.8-2.4s-.3-1.8-.8-2.4c-.5-.6-1.3-.9-2.2-.9-.9 0-1.7.3-2.3.8-.5.7-.8 1.5-.8 2.6 0 1 .3 1.7.8 2.3.6.6 1.3.9 2.2.9zm-1.4-5.1c.4-.4.9-.6 1.5-.6s1.1.2 1.5.6c.4.4.5 1 .5 1.8s-.2 1.4-.5 1.8c-.3.4-.8.6-1.5.6-.6 0-1.1-.2-1.5-.6-.4-.4-.6-1-.6-1.8 0-.7.2-1.3.6-1.8zm8.9 4.6c.4-.3.6-.8.6-1.3s-.2-.8-.5-1.1c-.2-.2-.6-.5-1.2-.7-.4-.3-.7-.4-.8-.6-.2-.2-.3-.4-.3-.6 0-.3.1-.5.3-.6.2-.2.5-.2.8-.2.5 0 1 .1 1.4.4v-1c-.4-.2-.8-.3-1.3-.3-.6 0-1.2.2-1.6.5-.4.3-.6.8-.6 1.3s.1.8.4 1.1c.2.2.6.5 1.1.7.5.2.8.4 1 .6.2.1.3.3.3.6 0 .6-.4.9-1.2.9-.6 0-1.1-.2-1.6-.6v1.1c.4.3 1 .4 1.5.4.7-.1 1.3-.3 1.7-.6zm6.9-.4c.6-.6.8-1.4.8-2.4s-.3-1.8-.8-2.4c-.5-.6-1.2-.9-2.2-.9-.9 0-1.7.3-2.3.8-.6.6-.9 1.4-.9 2.5 0 1 .3 1.7.8 2.3.5.6 1.3.9 2.2.9 1.1.1 1.8-.2 2.4-.8zm-4.3-2.3c0-.8.2-1.4.6-1.8.4-.4.9-.6 1.5-.6s1.1.2 1.5.6c.4.4.5 1 .5 1.8s-.2 1.4-.5 1.8c-.3.4-.8.6-1.5.6-.6 0-1.1-.2-1.5-.6-.4-.5-.6-1.1-.6-1.8zm6.8 3.1h1V4.5h1.5v-.9h-1.5v-1c0-.9.3-1.3 1-1.3.2 0 .5.1.7.2V.6c-.2-.1-.4-.1-.7-.1-.5 0-1 .2-1.3.5-.4.4-.6.9-.6 1.6v1h-1.1v.8H50v5.5zM54 8.1c0 1.2.5 1.8 1.6 1.8.4 0 .7-.1.9-.2v-.8c-.2.1-.4.2-.6.2-.3 0-.6-.1-.7-.3-.1-.1-.2-.4-.2-.8V4.5h1.6v-.9H55V1.8c-.4.1-.7.2-1 .3v1.5h-1.1v.8H54v3.7zM.8 32.4c-.5 0-.9.2-1.2.5-.4.4-.6.8-.6 1.3s.2.9.5 1.3.8.5 1.2.5c.5 0 .9-.2 1.3-.5.4-.4.5-.8.5-1.3s-.2-.9-.5-1.3c-.3-.3-.7-.5-1.2-.5zm21.5-3.5c0 1.6.1 2.7.2 3.4h-.1c-.2-.3-.5-.8-.9-1.5L10 12.7H6.5v22.9h2.7V19.1c0-1.6 0-2.7-.1-3.1h.1c.2.5.4 1 .7 1.4l11.8 18.3H25v-23h-2.7v16.2zm10.4-3.7H41v-2.4h-8.3v-7.6h8.9v-2.4H30v22.9h12.1v-2.4h-9.5v-8.1zm12-10h6.6v20.5H54V15.2h6.6v-2.4H44.7v2.4z"/></svg>
