<?xml version="1.0" encoding="UTF-8" standalone="no"?>
<svg
   xmlns:dc="http://purl.org/dc/elements/1.1/"
   xmlns:cc="http://creativecommons.org/ns#"
   xmlns:rdf="http://www.w3.org/1999/02/22-rdf-syntax-ns#"
   xmlns:svg="http://www.w3.org/2000/svg"
   xmlns="http://www.w3.org/2000/svg"
   xmlns:sodipodi="http://sodipodi.sourceforge.net/DTD/sodipodi-0.dtd"
   xmlns:inkscape="http://www.inkscape.org/namespaces/inkscape"
   id="Layer_1"
   viewBox="0 0 61.700002 35.5"
   version="1.1"
   sodipodi:docname="go.svg"
   width="61.700001"
   height="35.5"
   inkscape:version="1.0.2 (e86c8708, 2021-01-15)">
  <metadata
     id="metadata66">
    <rdf:RDF>
      <cc:Work
         rdf:about="">
        <dc:format>image/svg+xml</dc:format>
        <dc:type
           rdf:resource="http://purl.org/dc/dcmitype/StillImage" />
        <dc:title></dc:title>
      </cc:Work>
    </rdf:RDF>
  </metadata>
  <defs
     id="defs64" />
  <sodipodi:namedview
     pagecolor="#ffffff"
     bordercolor="#666666"
     borderopacity="1"
     objecttolerance="10"
     gridtolerance="10"
     guidetolerance="10"
     inkscape:pageopacity="0"
     inkscape:pageshadow="2"
     inkscape:window-width="1576"
     inkscape:window-height="871"
     id="namedview62"
     showgrid="false"
     lock-margins="true"
     fit-margin-top="0"
     fit-margin-left="0"
     fit-margin-right="0"
     fit-margin-bottom="0"
     inkscape:zoom="17.094156"
     inkscape:cx="39.028215"
     inkscape:cy="18.223504"
     inkscape:window-x="4028"
     inkscape:window-y="355"
     inkscape:window-maximized="0"
     inkscape:current-layer="Layer_1" />
  <style
     id="style57">.st0{fill:#ffffff}</style>
  <path
     class="st0"
     d="m 60.1,3.5 c 0.2,0 0.3,-0.1 0.4,-0.2 C 60.6,3.2 60.6,3.1 60.6,2.9 60.6,2.7 60.5,2.6 60.4,2.5 60.3,2.4 60.1,2.3 59.8,2.3 h -0.6 v 2.2 h 0.3 V 3.6 h 0.2 c 0.1,0 0.3,0.1 0.4,0.4 l 0.3,0.5 h 0.4 L 60.5,3.9 C 60.4,3.7 60.3,3.6 60.1,3.5 Z M 59.9,3.4 H 59.6 V 2.6 h 0.3 c 0.2,0 0.3,0 0.4,0.1 0.1,0.1 0.1,0.1 0.1,0.3 0,0.2 -0.2,0.4 -0.5,0.4 z M 60,1.8 C 59.5,1.8 59.1,2 58.8,2.3 58.5,2.6 58.3,3 58.3,3.5 58.3,4 58.5,4.4 58.8,4.7 59.1,5 59.5,5.2 60,5.2 60.5,5.2 60.9,5 61.2,4.7 61.5,4.4 61.7,4 61.7,3.5 61.7,3 61.5,2.6 61.2,2.3 60.8,2 60.4,1.8 60,1.8 Z m 1,2.7 C 60.7,4.8 60.4,4.9 60,4.9 59.6,4.9 59.2,4.8 59,4.5 58.7,4.2 58.6,3.9 58.6,3.4 58.6,3 58.7,2.6 59,2.4 59.3,2.1 59.6,2 60.1,2 c 0.4,0 0.8,0.1 1,0.4 0.3,0.3 0.4,0.6 0.4,1 C 61.4,3.9 61.3,4.2 61,4.5 Z M 8.4999999,3.5 V 1.8 c 0,0.4 0.1000003,0.7 0.2,0.9 L 11.7,9.4 h 0.5 l 3,-6.7 C 15.3,2.5 15.4,2.2 15.5,1.9 15.4,2.5 15.4,3 15.4,3.5 v 5.9 h 1 V 0.6 H 15.1 L 12.4,6.7 C 12.3,6.9 12.2,7.3 12,7.8 11.9,7.6 11.8,7.2 11.6,6.8 L 8.8000001,0.6 H 7.5000003 V 9.3 H 8.4999999 Z M 19.1,1.5 c 0.2,0 0.3,-0.1 0.5,-0.2 C 19.7,1.2 19.8,1 19.8,0.8 19.8,0.6 19.7,0.5 19.6,0.3 19.5,0.2 19.3,0.1 19.1,0.1 c -0.2,0 -0.3,0.1 -0.5,0.2 -0.1,0.1 -0.2,0.3 -0.2,0.5 0,0.2 0.1,0.3 0.2,0.5 0.1,0.2 0.3,0.2 0.5,0.2 z m -0.5,7.9 h 1 V 3.1 h -1 z m 5.5,0.1 c 0.7,0 1.2,-0.1 1.7,-0.4 v -1 C 25.3,8.5 24.8,8.6 24.3,8.6 23.7,8.6 23.1,8.4 22.8,8 22.4,7.6 22.2,7 22.2,6.3 c 0,-0.8 0.2,-1.4 0.6,-1.8 0.4,-0.4 0.9,-0.7 1.6,-0.7 0.5,0 1,0.2 1.5,0.5 v -1 C 25.5,3.1 25,3 24.5,3 c -1,0 -1.8,0.3 -2.4,0.9 -0.6,0.6 -0.9,1.5 -0.9,2.5 0,0.9 0.3,1.7 0.8,2.2 0.5,0.6 1.2,0.9 2.1,0.9 z M 29,3.3 C 28.7,3.5 28.5,3.9 28.3,4.4 V 3.1 h -1 v 6.2 h 1 V 6.2 c 0,-0.7 0.2,-1.3 0.5,-1.7 0.3,-0.4 0.6,-0.5 1,-0.5 0.3,0 0.6,0.1 0.8,0.2 v -1 C 30.5,3.1 30.3,3.1 30,3.1 29.6,3 29.3,3.1 29,3.3 Z m 5,6.2 c 0.9,0 1.7,-0.3 2.3,-0.9 C 36.9,8 37.1,7.2 37.1,6.2 37.1,5.2 36.8,4.4 36.3,3.8 35.8,3.2 35,2.9 34.1,2.9 33.2,2.9 32.4,3.2 31.8,3.7 31.3,4.4 31,5.2 31,6.3 c 0,1 0.3,1.7 0.8,2.3 0.6,0.6 1.3,0.9 2.2,0.9 z M 32.6,4.4 C 33,4 33.5,3.8 34.1,3.8 c 0.6,0 1.1,0.2 1.5,0.6 0.4,0.4 0.5,1 0.5,1.8 C 36.1,7 35.9,7.6 35.6,8 35.3,8.4 34.8,8.6 34.1,8.6 33.5,8.6 33,8.4 32.6,8 32.2,7.6 32,7 32,6.2 32,5.5 32.2,4.9 32.6,4.4 Z M 41.5,9 C 41.9,8.7 42.1,8.2 42.1,7.7 42.1,7.2 41.9,6.9 41.6,6.6 41.4,6.4 41,6.1 40.4,5.9 40,5.6 39.7,5.5 39.6,5.3 39.4,5.1 39.3,4.9 39.3,4.7 c 0,-0.3 0.1,-0.5 0.3,-0.6 0.2,-0.2 0.5,-0.2 0.8,-0.2 0.5,0 1,0.1 1.4,0.4 v -1 C 41.4,3.1 41,3 40.5,3 c -0.6,0 -1.2,0.2 -1.6,0.5 -0.4,0.3 -0.6,0.8 -0.6,1.3 0,0.5 0.1,0.8 0.4,1.1 0.2,0.2 0.6,0.5 1.1,0.7 0.5,0.2 0.8,0.4 1,0.6 0.2,0.1 0.3,0.3 0.3,0.6 0,0.6 -0.4,0.9 -1.2,0.9 -0.6,0 -1.1,-0.2 -1.6,-0.6 v 1.1 c 0.4,0.3 1,0.4 1.5,0.4 C 40.5,9.5 41.1,9.3 41.5,9 Z M 48.4,8.6 C 49,8 49.2,7.2 49.2,6.2 49.2,5.2 48.9,4.4 48.4,3.8 47.9,3.2 47.2,2.9 46.2,2.9 45.3,2.9 44.5,3.2 43.9,3.7 43.3,4.3 43,5.1 43,6.2 c 0,1 0.3,1.7 0.8,2.3 0.5,0.6 1.3,0.9 2.2,0.9 1.1,0.1 1.8,-0.2 2.4,-0.8 z M 44.1,6.3 c 0,-0.8 0.2,-1.4 0.6,-1.8 0.4,-0.4 0.9,-0.6 1.5,-0.6 0.6,0 1.1,0.2 1.5,0.6 0.4,0.4 0.5,1 0.5,1.8 0,0.8 -0.2,1.4 -0.5,1.8 C 47.4,8.5 46.9,8.7 46.2,8.7 45.6,8.7 45.1,8.5 44.7,8.1 44.3,7.6 44.1,7 44.1,6.3 Z m 6.8,3.1 h 1 V 4 h 1.5 V 3.1 h -1.5 v -1 c 0,-0.9 0.3,-1.3 1,-1.3 0.2,0 0.5,0.1 0.7,0.2 V 0.1 C 53.4,0 53.2,0 52.9,0 52.4,0 51.9,0.2 51.6,0.5 51.2,0.9 51,1.4 51,2.1 v 1 H 49.9 V 3.9 H 51 V 9.4 Z M 55,7.6 c 0,1.2 0.5,1.8 1.6,1.8 0.4,0 0.7,-0.1 0.9,-0.2 V 8.4 C 57.3,8.5 57.1,8.6 56.9,8.6 56.6,8.6 56.3,8.5 56.2,8.3 56.1,8.2 56,7.9 56,7.5 V 4 h 1.6 V 3.1 H 56 V 1.3 C 55.6,1.4 55.3,1.5 55,1.6 V 3.1 H 53.9 V 3.9 H 55 Z M 1.8,31.9 C 1.3,31.9 0.90000001,32.1 0.6,32.4 0.2,32.8 0,33.2 0,33.7 0,34.2 0.2,34.6 0.5,35 0.79999998,35.4 1.3,35.5 1.7,35.5 2.2,35.5 2.6,35.3 3,35 3.4,34.6 3.5,34.2 3.5,33.7 3.5,33.2 3.3,32.8 3,32.4 2.7,32.1 2.3,31.9 1.8,31.9 Z m 21.5,-3.5 c 0,1.6 0.1,2.7 0.2,3.4 H 23.4 C 23.2,31.5 22.9,31 22.5,30.3 L 11,12.2 H 7.5000003 V 35.1 H 10.2 V 18.6 c 0,-1.6 0,-2.7 -0.1,-3.1 h 0.1 c 0.2,0.5 0.4,1 0.7,1.4 L 22.7,35.2 H 26 v -23 H 23.3 Z M 33.7,24.7 H 42 v -2.4 h -8.3 v -7.6 h 8.9 V 12.3 H 31 v 22.9 h 12.1 v -2.4 h -9.5 v -8.1 z m 12,-10 h 6.6 V 35.2 H 55 V 14.7 h 6.6 V 12.3 H 45.7 Z"
     id="path59"
     style="stroke-width:1" />
  <g
     id="g520"
     transform="matrix(0.42777396,0,0,0.45795885,-26.605307,-35.533749)">
    <g
       id="g489">
      <g
         id="g487">
        <g
           id="g485">
          <path
             class="st5"
             d="m 40.2,101.1 c -0.4,0 -0.5,-0.2 -0.3,-0.5 L 42,97.9 c 0.2,-0.3 0.7,-0.5 1.1,-0.5 h 35.7 c 0.4,0 0.5,0.3 0.3,0.6 l -1.7,2.6 c -0.2,0.3 -0.7,0.6 -1,0.6 z"
             id="path483" />
        </g>
      </g>
    </g>
    <g
       id="g497">
      <g
         id="g495">
        <g
           id="g493">
          <path
             class="st5"
             d="m 25.1,110.3 c -0.4,0 -0.5,-0.2 -0.3,-0.5 l 2.1,-2.7 c 0.2,-0.3 0.7,-0.5 1.1,-0.5 h 45.6 c 0.4,0 0.6,0.3 0.5,0.6 l -0.8,2.4 c -0.1,0.4 -0.5,0.6 -0.9,0.6 z"
             id="path491" />
        </g>
      </g>
    </g>
    <g
       id="g505">
      <g
         id="g503">
        <g
           id="g501">
          <path
             class="st5"
             d="m 49.3,119.5 c -0.4,0 -0.5,-0.3 -0.3,-0.6 l 1.4,-2.5 c 0.2,-0.3 0.6,-0.6 1,-0.6 h 20 c 0.4,0 0.6,0.3 0.6,0.7 l -0.2,2.4 c 0,0.4 -0.4,0.7 -0.7,0.7 z"
             id="path499" />
        </g>
      </g>
    </g>
    <g
       id="g518">
      <g
         id="CXHf1q_2_">
        <g
           id="g515">
          <g
             id="g509">
            <path
               class="st5"
               d="m 153.1,99.3 c -6.3,1.6 -10.6,2.8 -16.8,4.4 -1.5,0.4 -1.6,0.5 -2.9,-1 -1.5,-1.7 -2.6,-2.8 -4.7,-3.8 -6.3,-3.1 -12.4,-2.2 -18.1,1.5 -6.8,4.4 -10.3,10.9 -10.2,19 0.1,8 5.6,14.6 13.5,15.7 6.8,0.9 12.5,-1.5 17,-6.6 0.9,-1.1 1.7,-2.3 2.7,-3.7 -3.6,0 -8.1,0 -19.3,0 -2.1,0 -2.6,-1.3 -1.9,-3 1.3,-3.1 3.7,-8.3 5.1,-10.9 0.3,-0.6 1,-1.6 2.5,-1.6 5.1,0 23.9,0 36.4,0 -0.2,2.7 -0.2,5.4 -0.6,8.1 -1.1,7.2 -3.8,13.8 -8.2,19.6 -7.2,9.5 -16.6,15.4 -28.5,17 -9.8,1.3 -18.9,-0.6 -26.9,-6.6 -7.4,-5.6 -11.6,-13 -12.7,-22.2 -1.3,-10.9 1.9,-20.7 8.5,-29.3 7.1,-9.3 16.5,-15.2 28,-17.3 9.4,-1.7 18.4,-0.6 26.5,4.9 5.3,3.5 9.1,8.3 11.6,14.1 0.6,0.9 0.2,1.4 -1,1.7 z"
               id="path507" />
          </g>
          <g
             id="g513">
            <path
               class="st5"
               d="m 186.2,154.6 c -9.1,-0.2 -17.4,-2.8 -24.4,-8.8 -5.9,-5.1 -9.6,-11.6 -10.8,-19.3 -1.8,-11.3 1.3,-21.3 8.1,-30.2 7.3,-9.6 16.1,-14.6 28,-16.7 10.2,-1.8 19.8,-0.8 28.5,5.1 7.9,5.4 12.8,12.7 14.1,22.3 1.7,13.5 -2.2,24.5 -11.5,33.9 -6.6,6.7 -14.7,10.9 -24,12.8 -2.7,0.5 -5.4,0.6 -8,0.9 z M 210,114.2 c -0.1,-1.3 -0.1,-2.3 -0.3,-3.3 -1.8,-9.9 -10.9,-15.5 -20.4,-13.3 -9.3,2.1 -15.3,8 -17.5,17.4 -1.8,7.8 2,15.7 9.2,18.9 5.5,2.4 11,2.1 16.3,-0.6 7.9,-4.1 12.2,-10.5 12.7,-19.1 z"
               id="path511" />
          </g>
        </g>
      </g>
    </g>
  </g>
</svg>
