<svg xmlns="http://www.w3.org/2000/svg" viewBox="120.57 170.656 61.6 38.5"><g fill="#000"><path d="M146.617 199.807s-1.384.805.985 1.077c2.87.327 4.337.28 7.5-.318 0 0 .833.522 1.994.973-7.092 3.04-16.05-.176-10.48-1.733M145.75 195.842s-1.553 1.15.82 1.394c3.065.316 5.487.342 9.677-.465 0 0 .58.59 1.49.91-8.573 2.507-18.122.198-11.987-1.838M153.055 189.114c1.747 2.012-.46 3.822-.46 3.822s4.438-2.29 2.4-5.158c-1.903-2.675-3.362-4.003 4.538-8.585 0 0-12.4 3.097-6.478 9.92"/><path d="M162.433 202.74s1.024.845-1.128 1.498c-4.093 1.24-17.036 1.614-20.63.05-1.293-.563 1.13-1.344 1.893-1.507.795-.17 1.25-.14 1.25-.14-1.438-1.012-9.29 1.99-3.99 2.85 14.458 2.343 26.356-1.058 22.605-2.75M147.282 191.733s-6.583 1.564-2.33 2.132c1.794.24 5.373.186 8.707-.093 2.724-.23 5.46-.72 5.46-.72s-.962.412-1.657.887c-6.685 1.757-19.6.94-15.882-.86 3.146-1.52 5.702-1.347 5.702-1.347M159.092 198.334c6.796-3.53 3.654-6.925 1.46-6.468-.537.112-.776.21-.776.21s.2-.314.58-.45c4.34-1.524 7.677 4.5-1.4 6.886 0 0 .105-.094.136-.178M154.995 171.794s3.764 3.765-3.57 9.554c-5.88 4.644-1.34 7.292-.002 10.318-3.433-3.097-5.952-5.823-4.262-8.36 2.482-3.725 9.353-5.53 7.835-11.512"/><path d="M147.95 207.903c6.523.418 16.54-.232 16.778-3.318 0 0-.456 1.17-5.39 2.1-5.57 1.047-12.436.925-16.51.253 0 0 .835.69 5.122.965"/></g></svg>