<svg id="Layer_1" xmlns="http://www.w3.org/2000/svg" viewBox="0 0 61.6 38.5"><style>.st0{fill:#ffffff}</style><path class="st0" d="M29.9 37.8c-.5 0-1-.1-1.5-.3l-4.6-2.7c-.5-.3-.6-.5-.2-.6.7-.3 1.5-.6 2.1-1 .1-.1.2 0 .3.1l3.6 2.1c.2.1.3.1.4 0l13.9-8c.2-.1.3-.2.3-.3V10.7c0-.2-.1-.3-.3-.3L30 2.4c-.2-.1-.3-.1-.4 0l-13.9 8c-.2.1-.3.2-.3.3v16.2c0 .2.1.3.3.3l3.8 2.2c1 .5 1.8.5 2.4.2.6-.3.9-.9.9-1.5v-16c0-.3.1-.4.3-.4h1.8c.3 0 .4.1.4.4V28c0 1.4-.4 2.4-1.1 3.2-.7.7-1.7 1.1-3 1.1-1 0-2.1-.3-3.2-.9l-3.7-2.1c-1-.6-1.5-1.4-1.5-2.6v-16c0-1.1.5-1.9 1.5-2.5L28.4 0c1-.5 2-.5 3 0l13.9 8.1c1 .6 1.5 1.4 1.5 2.5v16.2c0 1.1-.5 2-1.5 2.6l-13.9 8c-.4.2-.9.4-1.5.4zm-3.1-16.3c0-.2.1-.3.4-.3H29c.2 0 .4.1.4.3.2 1 .6 1.7 1.2 2.1.6.4 1.8.6 3.6.6 2.8 0 4.2-.7 4.2-2.2 0-.3-.1-.6-.3-.8-.2-.2-.6-.4-1.4-.6-.7-.2-1.9-.4-3.3-.6-2.1-.2-3.7-.6-4.7-1.2s-1.5-1.6-1.5-3.1c0-1.4.6-2.5 1.7-3.2 1.1-.8 2.7-1.2 4.7-1.2 4.4 0 6.7 1.6 7 4.9 0 .1 0 .2-.1.3-.1.1-.2.1-.3.1h-1.8c-.2 0-.4-.1-.4-.3-.2-1-.7-1.6-1.3-2-.6-.3-1.7-.5-3.1-.5-2.4 0-3.6.6-3.6 1.9 0 .6.3 1 .8 1.2.5.2 1.9.5 4 .7 2.3.3 4 .8 4.9 1.4.9.6 1.4 1.6 1.4 3 0 1.5-.6 2.7-1.8 3.5-1.2.9-2.9 1.3-5.1 1.3-4.9-.1-7.4-1.8-7.4-5.3z"/></svg>
