<svg id="Layer_1" xmlns="http://www.w3.org/2000/svg" viewBox="0 0 61.6 38.5"><style>.st0{fill:#ffffff}</style><path class="st0" d="M45.6.3c.7 0 1.4.3 1.9.8s.8 1.1.8 1.8V3l-.1.3-2.9 26.5c.1 1.2-.4 2.1-1.5 2.6L32.2 38c-.4.2-.8.3-1.2.3-.4 0-.8-.1-1.2-.3L18 32.2c-.6-.3-1-.7-1.2-1.2-.2-.3-.4-.6-.4-1L13.5 3.3l-.2-.3v-.1c0-.7.3-1.3.9-1.8.6-.5 1.2-.8 2-.8H45.6zM18.3 22.5h2.3l.5-2.6h2.1c1.1.1 2.2-.3 3-1.2.9-.8 1.3-2 1.3-3.4 0-1.7-1-2.6-2.9-2.7h-4.4l-1.9 9.9zm3.4-4.4l.6-3.7h1.5c1 0 1.5.4 1.5 1.1-.1.9-.3 1.5-.6 1.9-.4.3-.9.6-1.5.7h-1.5zm5.3 1.8h2.3l1.1-5.5h1.8c.4 0 .6.1.7.3s.1.4 0 .7l-.9 4.5h2.5l.9-5c.1-.6 0-1.2-.4-1.6-.4-.4-1.1-.7-2.1-.7h-2.1l.5-2.6H29l-2 9.9zm7.7 2.4H37l.4-2.5h2.2c1.1.1 2.1-.3 3-1.2.9-.9 1.4-2 1.4-3.3 0-1.7-1-2.6-2.9-2.7h-4.4l-2 9.7zm3.2-4.3l.6-3.6H40c1 0 1.5.4 1.5 1.1-.1.9-.3 1.5-.6 1.9-.4.3-.9.5-1.5.6h-1.5z"/></svg>
