<svg id="Layer_1" xmlns="http://www.w3.org/2000/svg" viewBox="0 0 61.6 38.5"><style>.st0{fill:#ffffff}</style><path class="st0" d="M29.6-.3c1.8 0 3.4.2 4.7.5 1.2.4 2.1.8 2.7 1.3.5.5.9 1 1.2 1.5.3.5.4.9.4 1.2v9c0 1.5-.4 2.6-1.2 3.5-.8.8-1.6 1.3-2.4 1.4l-1.3.1h-8.8c-1 0-1.8.2-2.5.6-.7.4-1.2.8-1.5 1.4-.3.5-.6 1.1-.7 1.6-.2.5-.3 1-.3 1.4v5.1h-3.7c-.2 0-.6-.2-1.2-.5s-1.1-.8-1.6-1.3c-.5-.6-.9-1.5-1.2-2.9-.4-1.3-.6-2.9-.6-4.7 0-1.8.2-3.4.6-4.7.4-1.3.9-2.2 1.5-2.8.6-.5 1.2-1 1.8-1.2.6-.3 1.1-.4 1.5-.3h13V8.3h-8.8l-.1-4.4v-.4c0-.2.2-.5.4-1 .1-.5.5-.9 1-1.3s1.4-.7 2.7-1c1.2-.3 2.6-.5 4.4-.5zm.2 38.1c-1.8 0-3.3-.2-4.6-.5-1.2-.4-2.2-.8-2.7-1.3s-1-1-1.2-1.5c-.3-.5-.4-.9-.4-1.3l.1-.5v-8.4c0-1.5.4-2.7 1.2-3.5.8-.8 1.6-1.3 2.5-1.3l1.2-.2h8.8c1 0 1.8-.2 2.5-.6.7-.4 1.2-.8 1.5-1.3.3-.5.6-1 .7-1.6.2-.5.3-1 .3-1.4v-5h3.7c.3 0 .7.2 1.2.5.6.3 1.1.8 1.5 1.4.5.6.9 1.6 1.2 2.9.4 1.3.6 2.9.6 4.7 0 1.8-.2 3.4-.6 4.7-.4 1.3-.9 2.2-1.5 2.8-.6.5-1.2 1-1.8 1.2-.6.3-1.1.4-1.5.4H29.6v1.3h8.9v4.9c0 .2-.1.5-.4 1-.3.5-.7.9-1.2 1.3s-1.4.7-2.7 1c-1.1.1-2.6.3-4.4.3zm-4-34.7c-.3-.3-.7-.5-1.2-.5s-.8.2-1.2.5c-.3.3-.5.7-.5 1.2s.2.8.5 1.2c.4.3.8.5 1.3.5s.8-.2 1.2-.5c.3-.3.5-.7.5-1.2-.1-.4-.2-.8-.6-1.2zm7.8 31.3c.3.3.7.5 1.1.5s.8-.2 1.1-.5c.3-.3.5-.7.5-1.2s-.2-.9-.5-1.2c-.3-.3-.7-.5-1.1-.5s-.8.2-1.1.5c-.3.3-.5.7-.5 1.2.1.5.2.9.5 1.2z"/></svg>
