<svg id="Layer_1" xmlns="http://www.w3.org/2000/svg" viewBox="0 0 61.6 38.5"><style>.st0{fill:#000}</style><path class="st0" d="M11.1 32.6l1.2-11.1 2.1 1.7-3.2 10v-.6zm3.8-8l5 10.1-8.5 1.1 3.5-11.2zm5.6 11.2l.2-.1 23.9 1-32.5.1 8.4-1zm9.1-26.9l-7.8 8.7-7 4.4-2-1.7 2.8-5.2 6.6-7.4 6.4-4.5 2.8.8-1.8 4.9zm-9.8 23.3L15.2 23l6.5-4.2-1.9 13.4zm16.6-10.4L20.7 34.2l2.1-15.3 13.6 2.9zm.8.9L47 35.9l-25.2-1 15.4-12.2zm-7-12.8l5.9 11L22.9 18l7.3-8.1zM40.5 0l-8.7 2.8-1.6-.4L40.5 0zm-9.7 8.9l1.9-5 10.9 1.7-12.8 3.3zm.5 1l13.8-3.7L37.2 21 31.3 9.9zm15.2-4.7L34.9 3.1l9.2-3 2.4 5.1zM48 35.7L37.9 22.1l8.7-16.3L48 35.7z"/></svg>